<svg xmlns="http://www.w3.org/2000/svg" xmlns:xlink="http://www.w3.org/1999/xlink" width="500" zoomAndPan="magnify" viewBox="0 0 375 374.999991" height="500" preserveAspectRatio="xMidYMid meet" version="1.0"><defs><g/></defs><g fill="#cf436c" fill-opacity="1"><g transform="translate(1.915878, 180.065825)"><g><path d="M 4.671875 -64.59375 C 4.671875 -65.257812 4.820312 -65.769531 5.125 -66.125 C 5.425781 -66.488281 5.84375 -66.671875 6.375 -66.671875 L 54.265625 -66.671875 C 55.347656 -66.671875 55.890625 -66.039062 55.890625 -64.78125 L 55.796875 -54.359375 C 55.796875 -52.742188 55.046875 -51.9375 53.546875 -51.9375 L 27.140625 -51.9375 C 25.753906 -51.9375 25.0625 -51.363281 25.0625 -50.21875 L 25.0625 -41.78125 C 25.0625 -40.582031 25.601562 -39.984375 26.6875 -39.984375 L 43.125 -39.984375 C 44.320312 -39.984375 44.921875 -39.382812 44.921875 -38.1875 L 44.921875 -27.21875 C 44.921875 -26.207031 44.382812 -25.703125 43.3125 -25.703125 L 26.5 -25.703125 C 26.082031 -25.703125 25.738281 -25.582031 25.46875 -25.34375 C 25.195312 -25.101562 25.0625 -24.769531 25.0625 -24.34375 L 25.0625 -2.609375 C 25.0625 -1.648438 24.820312 -0.972656 24.34375 -0.578125 C 23.863281 -0.191406 23.117188 0 22.109375 0 L 7.09375 0 C 6.195312 0 5.566406 -0.175781 5.203125 -0.53125 C 4.847656 -0.894531 4.671875 -1.46875 4.671875 -2.25 Z M 4.671875 -64.59375 "/></g></g></g><g fill="#cf436c" fill-opacity="1"><g transform="translate(60.309239, 180.065825)"><g><path d="M 62.984375 -2.875 C 63.097656 -2.632812 63.15625 -2.304688 63.15625 -1.890625 C 63.15625 -1.347656 62.988281 -0.894531 62.65625 -0.53125 C 62.332031 -0.175781 61.898438 0 61.359375 0 L 43.9375 0 C 42.675781 0 41.867188 -0.628906 41.515625 -1.890625 L 33.0625 -25.0625 C 32.882812 -25.539062 32.582031 -25.898438 32.15625 -26.140625 C 31.738281 -26.378906 31.113281 -26.5 30.28125 -26.5 L 26.140625 -26.5 C 25.785156 -26.5 25.515625 -26.378906 25.328125 -26.140625 C 25.148438 -25.898438 25.0625 -25.691406 25.0625 -25.515625 L 25.0625 -2.609375 C 25.0625 -1.648438 24.820312 -0.972656 24.34375 -0.578125 C 23.863281 -0.191406 23.117188 0 22.109375 0 L 7.015625 0 C 6.109375 0 5.488281 -0.175781 5.15625 -0.53125 C 4.832031 -0.894531 4.671875 -1.46875 4.671875 -2.25 L 4.671875 -64.59375 C 4.671875 -65.976562 5.238281 -66.671875 6.375 -66.671875 L 36.390625 -66.671875 C 45.078125 -66.671875 51.816406 -65.003906 56.609375 -61.671875 C 61.398438 -58.347656 63.796875 -53.664062 63.796875 -47.625 C 63.796875 -43.488281 62.703125 -39.800781 60.515625 -36.5625 C 58.328125 -33.332031 55.492188 -31.054688 52.015625 -29.734375 C 51.660156 -29.554688 51.484375 -29.257812 51.484375 -28.84375 C 51.484375 -28.664062 51.539062 -28.394531 51.65625 -28.03125 Z M 35.578125 -39.890625 C 37.859375 -39.890625 39.609375 -40.472656 40.828125 -41.640625 C 42.054688 -42.804688 42.671875 -44.378906 42.671875 -46.359375 C 42.671875 -48.578125 41.9375 -50.300781 40.46875 -51.53125 C 39.007812 -52.757812 37.203125 -53.375 35.046875 -53.375 L 27.140625 -53.375 C 26.359375 -53.375 25.816406 -53.238281 25.515625 -52.96875 C 25.210938 -52.695312 25.0625 -52.234375 25.0625 -51.578125 L 25.0625 -41.78125 C 25.0625 -41.125 25.164062 -40.644531 25.375 -40.34375 C 25.59375 -40.039062 26 -39.890625 26.59375 -39.890625 Z M 35.578125 -39.890625 "/></g></g></g><g fill="#cf436c" fill-opacity="1"><g transform="translate(126.69799, 180.065825)"><g><path d="M 4.671875 -64.59375 C 4.671875 -65.976562 5.238281 -66.671875 6.375 -66.671875 L 54.890625 -66.671875 C 55.972656 -66.671875 56.515625 -66.039062 56.515625 -64.78125 L 56.421875 -54.359375 C 56.421875 -52.742188 55.644531 -51.9375 54.09375 -51.9375 L 27.140625 -51.9375 C 25.753906 -51.9375 25.0625 -51.363281 25.0625 -50.21875 L 25.0625 -42.59375 C 25.0625 -41.988281 25.210938 -41.519531 25.515625 -41.1875 C 25.816406 -40.863281 26.207031 -40.703125 26.6875 -40.703125 L 42.859375 -40.703125 C 44.117188 -40.703125 44.75 -40.101562 44.75 -38.90625 L 44.75 -27.765625 C 44.75 -26.742188 44.207031 -26.234375 43.125 -26.234375 L 26.5 -26.234375 C 26.082031 -26.234375 25.738281 -26.113281 25.46875 -25.875 C 25.195312 -25.632812 25.0625 -25.335938 25.0625 -24.984375 L 25.0625 -16 C 25.0625 -15.519531 25.132812 -15.1875 25.28125 -15 C 25.4375 -14.820312 25.722656 -14.734375 26.140625 -14.734375 L 55.34375 -14.734375 C 56.664062 -14.734375 57.328125 -14.164062 57.328125 -13.03125 L 57.328125 -1.984375 C 57.328125 -1.378906 57.144531 -0.894531 56.78125 -0.53125 C 56.425781 -0.175781 55.890625 0 55.171875 0 L 7.09375 0 C 6.195312 0 5.566406 -0.175781 5.203125 -0.53125 C 4.847656 -0.894531 4.671875 -1.46875 4.671875 -2.25 Z M 4.671875 -64.59375 "/></g></g></g><g fill="#cf436c" fill-opacity="1"><g transform="translate(186.977909, 180.065825)"><g><path d="M 4.671875 -64.59375 C 4.671875 -65.976562 5.238281 -66.671875 6.375 -66.671875 L 54.890625 -66.671875 C 55.972656 -66.671875 56.515625 -66.039062 56.515625 -64.78125 L 56.421875 -54.359375 C 56.421875 -52.742188 55.644531 -51.9375 54.09375 -51.9375 L 27.140625 -51.9375 C 25.753906 -51.9375 25.0625 -51.363281 25.0625 -50.21875 L 25.0625 -42.59375 C 25.0625 -41.988281 25.210938 -41.519531 25.515625 -41.1875 C 25.816406 -40.863281 26.207031 -40.703125 26.6875 -40.703125 L 42.859375 -40.703125 C 44.117188 -40.703125 44.75 -40.101562 44.75 -38.90625 L 44.75 -27.765625 C 44.75 -26.742188 44.207031 -26.234375 43.125 -26.234375 L 26.5 -26.234375 C 26.082031 -26.234375 25.738281 -26.113281 25.46875 -25.875 C 25.195312 -25.632812 25.0625 -25.335938 25.0625 -24.984375 L 25.0625 -16 C 25.0625 -15.519531 25.132812 -15.1875 25.28125 -15 C 25.4375 -14.820312 25.722656 -14.734375 26.140625 -14.734375 L 55.34375 -14.734375 C 56.664062 -14.734375 57.328125 -14.164062 57.328125 -13.03125 L 57.328125 -1.984375 C 57.328125 -1.378906 57.144531 -0.894531 56.78125 -0.53125 C 56.425781 -0.175781 55.890625 0 55.171875 0 L 7.09375 0 C 6.195312 0 5.566406 -0.175781 5.203125 -0.53125 C 4.847656 -0.894531 4.671875 -1.46875 4.671875 -2.25 Z M 4.671875 -64.59375 "/></g></g></g><g fill="#d8d355" fill-opacity="1"><g transform="translate(247.247897, 180.065825)"><g><path d="M 4.671875 0 C 3.773438 0 3.160156 -0.148438 2.828125 -0.453125 C 2.503906 -0.753906 2.34375 -1.351562 2.34375 -2.25 L 2.34375 -6.296875 C 2.34375 -7.191406 2.429688 -7.863281 2.609375 -8.3125 C 2.785156 -8.757812 3.320312 -9.613281 4.21875 -10.875 L 31.890625 -50.40625 C 32.128906 -50.707031 32.25 -51.003906 32.25 -51.296875 C 32.25 -51.660156 31.863281 -51.84375 31.09375 -51.84375 L 7.28125 -51.84375 C 6.5 -51.84375 5.972656 -51.988281 5.703125 -52.28125 C 5.429688 -52.582031 5.296875 -53.15625 5.296875 -54 L 5.296875 -64.78125 C 5.296875 -65.375 5.445312 -65.835938 5.75 -66.171875 C 6.050781 -66.503906 6.441406 -66.671875 6.921875 -66.671875 L 59.65625 -66.671875 C 60.195312 -66.671875 60.613281 -66.503906 60.90625 -66.171875 C 61.207031 -65.835938 61.359375 -65.40625 61.359375 -64.875 L 61.359375 -60.28125 C 61.359375 -59.625 61.253906 -59.054688 61.046875 -58.578125 C 60.835938 -58.097656 60.4375 -57.441406 59.84375 -56.609375 L 31.09375 -16.171875 C 30.96875 -15.992188 30.90625 -15.816406 30.90625 -15.640625 C 30.90625 -15.160156 31.328125 -14.921875 32.171875 -14.921875 L 58.84375 -14.921875 C 60.164062 -14.921875 60.828125 -14.347656 60.828125 -13.203125 L 60.828125 -1.984375 C 60.828125 -1.378906 60.644531 -0.894531 60.28125 -0.53125 C 59.925781 -0.175781 59.390625 0 58.671875 0 Z M 4.671875 0 "/></g></g></g><g fill="#cf436c" fill-opacity="1"><g transform="translate(311.384608, 180.065825)"><g><path d="M 4.671875 -64.59375 C 4.671875 -65.976562 5.238281 -66.671875 6.375 -66.671875 L 54.890625 -66.671875 C 55.972656 -66.671875 56.515625 -66.039062 56.515625 -64.78125 L 56.421875 -54.359375 C 56.421875 -52.742188 55.644531 -51.9375 54.09375 -51.9375 L 27.140625 -51.9375 C 25.753906 -51.9375 25.0625 -51.363281 25.0625 -50.21875 L 25.0625 -42.59375 C 25.0625 -41.988281 25.210938 -41.519531 25.515625 -41.1875 C 25.816406 -40.863281 26.207031 -40.703125 26.6875 -40.703125 L 42.859375 -40.703125 C 44.117188 -40.703125 44.75 -40.101562 44.75 -38.90625 L 44.75 -27.765625 C 44.75 -26.742188 44.207031 -26.234375 43.125 -26.234375 L 26.5 -26.234375 C 26.082031 -26.234375 25.738281 -26.113281 25.46875 -25.875 C 25.195312 -25.632812 25.0625 -25.335938 25.0625 -24.984375 L 25.0625 -16 C 25.0625 -15.519531 25.132812 -15.1875 25.28125 -15 C 25.4375 -14.820312 25.722656 -14.734375 26.140625 -14.734375 L 55.34375 -14.734375 C 56.664062 -14.734375 57.328125 -14.164062 57.328125 -13.03125 L 57.328125 -1.984375 C 57.328125 -1.378906 57.144531 -0.894531 56.78125 -0.53125 C 56.425781 -0.175781 55.890625 0 55.171875 0 L 7.09375 0 C 6.195312 0 5.566406 -0.175781 5.203125 -0.53125 C 4.847656 -0.894531 4.671875 -1.46875 4.671875 -2.25 Z M 4.671875 -64.59375 "/></g></g></g></svg>